<?xml version="1.0" encoding="utf-8"?>
<!-- Generator: Adobe Illustrator 25.0.0, SVG Export Plug-In . SVG Version: 6.00 Build 0)  -->
<svg version="1.1" id="Layer_1" xmlns="http://www.w3.org/2000/svg" xmlns:xlink="http://www.w3.org/1999/xlink" x="0px" y="0px"
	 viewBox="0 0 32 32" style="enable-background:new 0 0 32 32;" xml:space="preserve">
<style type="text/css">
	.st0{fill:#FFCE00;stroke:#2A2A2A;stroke-miterlimit:10;}
	.st1{fill:#FFFFFF;}
	.st2{fill:#2A2A2A;}
	.st3{opacity:0.3;}
	.st4{opacity:0.6;}
	.st5{fill:#000072;}
</style>
<circle class="st0" cx="16" cy="21.1" r="10.4"/>
<g>
	<g>
		<g>
			<path class="st1" d="M18.7,8.3l1,6.1c-1.9,1.1-3.8,1.9-5.9,2.2c-2.3,0.4-4.6,0.3-7.1-0.2L6.3,9.4C2.1,8.9,1.9,6,3.2,4.7
				c0.9-0.8,2.4-1,3.9,0.3c0-0.1,0.1-0.1,0.1-0.2c1.8-2.8,4-4.1,6-4.3c0,0,0,0,0,0c0,0,0,0,0,0c0.3,0,0.5,0,0.8,0
				c2.6,0,4.3,1.9,3.2,3.8C22.5,2.1,24.8,7.4,18.7,8.3z"/>
		</g>
	</g>
	<g>
		<g>
			<path class="st2" d="M12.6,17.3c-1.9,0.2-4,0.1-6-0.4c-0.2,0-0.4-0.2-0.4-0.4L5.8,9.8C2.9,9.3,2.2,7.7,2.1,7
				c-0.2-1.2,0.3-2.4,1.4-3c1.1-0.6,2.4-0.5,3.6,0.3c1.6-2.5,3.5-3.5,4.8-3.9c1.7-0.5,3.4-0.4,4.6,0.3c1.1,0.7,1.7,1.8,1.5,2.9
				c1.9-0.5,3.3-0.1,4,0.6c0.7,0.6,0.9,1.4,0.7,2.2c-0.3,1.2-1.6,2-3.5,2.4l0.9,5.7c0,0.2-0.1,0.4-0.2,0.5
				C17.6,16.2,15.2,17.1,12.6,17.3z M7.1,16.1c4.5,0.9,8.4,0.2,12-1.9l-0.9-5.8c0-0.3,0.1-0.5,0.4-0.5c1.7-0.3,2.9-1,3.2-1.8
				c0.1-0.4,0-0.9-0.4-1.2c-0.7-0.6-2-0.9-4-0.1c-0.2,0.1-0.4,0-0.5-0.1c-0.1-0.2-0.2-0.4-0.1-0.5c0.7-1.2,0-2.1-0.8-2.6
				c-1.9-1.1-5.7-0.7-8.4,3.8C7.5,5.3,7.4,5.4,7.3,5.4c-0.1,0-0.3,0-0.4-0.1c-1-0.9-2.1-1.1-3-0.6C3.2,5.2,2.8,6,3,6.8
				C3.2,7.9,4.4,8.7,6.3,9c0.2,0,0.4,0.2,0.4,0.4L7.1,16.1z"/>
		</g>
		<g>
			<path class="st2" d="M18.8,8.8l-2.1,0c-0.1,0-0.2-0.1-0.2-0.2c0-0.1,0.1-0.1,0.1-0.2l2-0.6c0.3-0.1,0.5,0.1,0.6,0.3
				c0.1,0.3-0.1,0.5-0.3,0.6C18.9,8.8,18.8,8.8,18.8,8.8z"/>
		</g>
		<g>
			<path class="st2" d="M6.2,9l1.9,0.3c0.1,0,0.2,0.1,0.2,0.2c0,0.1-0.1,0.1-0.1,0.2L6.3,9.9C6,9.9,5.8,9.8,5.7,9.5
				C5.7,9.2,5.8,9,6.1,9C6.1,8.9,6.2,8.9,6.2,9z"/>
		</g>
	</g>
	<g>
		<g class="st3">
			<path class="st2" d="M16.9,5.2c1.4,0.3,0.7,1.6-1.3,3.3c-0.4,0.4-0.7,0.9-0.7,1.5l0.1,3.5c0,0-0.8,1.8-1.2,3.1c0,0,0,0,0,0
				c1.7-0.4,3.3-1.1,4.9-2l-1-6.1c5.1-0.8,4.3-4.6,0.9-4.6c-0.5,0.1-0.9,0.2-1.5,0.4c0.1-0.1,0.1-0.2,0.1-0.3
				c-0.3,0.1-0.7,0.2-1,0.4c1.1-1.9-0.5-3.6-2.9-3.8c-0.1,0-0.1,0-0.2-0.1c2.4,0.9,2.4,2.7-0.1,5.4l2.4-0.7
				C16,5.1,16.5,5.1,16.9,5.2z"/>
		</g>
	</g>
	<g class="st3">
		<path class="st2" d="M7.3,4.8L6.3,7C5.8,5.1,4.5,5.1,2.9,5.8l0.4-1.1c0.9-0.8,2.4-1,3.9,0.3C7.2,4.9,7.3,4.8,7.3,4.8
			C7.3,4.8,7.3,4.8,7.3,4.8z"/>
	</g>
</g>
<g>
	<g class="st4">
		<path class="st1" d="M9.8,28.1C9.8,28.1,9.8,28.1,9.8,28.1L9.8,28.1C9.8,28.1,9.8,28.1,9.8,28.1C9.8,28,9.7,28,9.8,28.1L9.8,28.1z
			"/>
	</g>
	<g>
		<g>
			<g>
				<path class="st2" d="M16.4,23.4C16.4,23.4,16.4,23.4,16.4,23.4l1.9,0.4c0.1,0,0.2,0.1,0.2,0.3c0,0.1,0,0.3-0.1,0.4L17,25.9
					c-0.4,0.4-0.9,0.4-1.2,0l-1.4-1.5c-0.1-0.1-0.1-0.2-0.1-0.4c0-0.1,0.1-0.2,0.2-0.3L16.4,23.4C16.3,23.4,16.4,23.4,16.4,23.4z
					 M17.6,24.4l-1.3-0.3l-1.3,0.3l0.9,1c0.2,0.2,0.5,0.2,0.6,0L17.6,24.4z"/>
			</g>
		</g>
		<g class="st3">
			<polygon class="st5" points="16.4,25.9 16.4,23.8 14.9,24.3 			"/>
		</g>
	</g>
	<g>
		<g>
			<g>
				<g>
					<path class="st2" d="M13.2,18.2c-0.9-0.2-1.8,0.7-2.1,1.9c-0.2,1.2,0.3,2.3,1.2,2.5c0.9,0.2,1.8-0.7,2.1-1.9
						C14.7,19.5,14.1,18.3,13.2,18.2z"/>
				</g>
			</g>
		</g>
		<g>
			<g>
				<g>
					<path class="st1" d="M13.1,18.7c-0.3,0.1-0.5,0.5-0.4,0.9c0.1,0.4,0.4,0.7,0.7,0.6c0.3-0.1,0.5-0.5,0.4-0.9
						C13.8,18.9,13.4,18.6,13.1,18.7z"/>
				</g>
			</g>
		</g>
	</g>
	<g>
		<g>
			<g>
				<g>
					<path class="st2" d="M19.1,18.2c0.9-0.3,1.9,0.5,2.2,1.6c0.3,1.2-0.1,2.4-1,2.6c-0.9,0.3-1.9-0.5-2.2-1.6
						C17.7,19.7,18.2,18.5,19.1,18.2z"/>
				</g>
			</g>
		</g>
		<g>
			<g>
				<g>
					<path class="st1" d="M19.2,18.7c0.3,0.1,0.5,0.4,0.4,0.9c-0.1,0.4-0.4,0.7-0.7,0.7c-0.3-0.1-0.5-0.4-0.4-0.9
						C18.6,19,18.9,18.7,19.2,18.7z"/>
				</g>
			</g>
		</g>
	</g>
</g>
</svg>
